<svg width="349" height="161" viewBox="0 0 349 161" fill="none" xmlns="http://www.w3.org/2000/svg">
<rect x="1" y="1" width="347" height="159" rx="9" stroke="#020A36" stroke-width="2" stroke-dasharray="10 10"/>
<path d="M102.57 142.288C101.466 142.288 100.466 142.112 99.5697 141.76C98.6897 141.392 97.9297 140.848 97.2897 140.128C96.6657 139.408 96.1857 138.52 95.8497 137.464C95.5137 136.392 95.3457 135.152 95.3457 133.744C95.3457 132.336 95.5137 131.088 95.8497 130C96.1857 128.896 96.6657 127.976 97.2897 127.24C97.9297 126.488 98.6897 125.92 99.5697 125.536C100.466 125.152 101.466 124.96 102.57 124.96C104.074 124.96 105.322 125.28 106.314 125.92C107.306 126.56 108.098 127.528 108.69 128.824L105.978 130.264C105.738 129.512 105.346 128.912 104.802 128.464C104.258 128 103.514 127.768 102.57 127.768C101.386 127.768 100.442 128.168 99.7377 128.968C99.0497 129.768 98.7057 130.888 98.7057 132.328V134.968C98.7057 136.424 99.0497 137.544 99.7377 138.328C100.442 139.096 101.386 139.48 102.57 139.48C103.514 139.48 104.282 139.224 104.874 138.712C105.482 138.2 105.922 137.568 106.194 136.816L108.762 138.328C108.154 139.576 107.346 140.552 106.338 141.256C105.33 141.944 104.074 142.288 102.57 142.288ZM117.735 142.288C116.631 142.288 115.631 142.104 114.735 141.736C113.839 141.368 113.071 140.816 112.431 140.08C111.807 139.344 111.319 138.44 110.967 137.368C110.615 136.296 110.439 135.048 110.439 133.624C110.439 132.216 110.615 130.976 110.967 129.904C111.319 128.816 111.807 127.904 112.431 127.168C113.071 126.432 113.839 125.88 114.735 125.512C115.631 125.144 116.631 124.96 117.735 124.96C118.839 124.96 119.839 125.144 120.735 125.512C121.631 125.88 122.399 126.432 123.039 127.168C123.679 127.904 124.167 128.816 124.503 129.904C124.855 130.976 125.031 132.216 125.031 133.624C125.031 135.048 124.855 136.296 124.503 137.368C124.167 138.44 123.679 139.344 123.039 140.08C122.399 140.816 121.631 141.368 120.735 141.736C119.839 142.104 118.839 142.288 117.735 142.288ZM117.735 139.48C118.935 139.48 119.887 139.08 120.591 138.28C121.311 137.48 121.671 136.36 121.671 134.92V132.328C121.671 130.888 121.311 129.768 120.591 128.968C119.887 128.168 118.935 127.768 117.735 127.768C116.535 127.768 115.575 128.168 114.855 128.968C114.151 129.768 113.799 130.888 113.799 132.328V134.92C113.799 136.36 114.151 137.48 114.855 138.28C115.575 139.08 116.535 139.48 117.735 139.48ZM133.045 133.408L131.317 129.928H131.245V142H128.245V125.248H131.725L136.765 133.84L138.493 137.32H138.565V125.248H141.565V142H138.085L133.045 133.408ZM145.495 142V125.248H156.271V128.056H148.663V132.112H155.287V134.92H148.663V142H145.495ZM158.651 142V139.456H160.859V127.792H158.651V125.248H166.259V127.792H164.027V139.456H166.259V142H158.651ZM172.663 142H169.495V125.248H177.055C177.823 125.248 178.511 125.368 179.119 125.608C179.727 125.848 180.239 126.2 180.655 126.664C181.087 127.112 181.415 127.656 181.639 128.296C181.879 128.936 181.999 129.648 181.999 130.432C181.999 131.584 181.735 132.576 181.207 133.408C180.695 134.24 179.919 134.832 178.879 135.184L182.311 142H178.783L175.663 135.544H172.663V142ZM176.743 132.88C177.351 132.88 177.831 132.72 178.183 132.4C178.535 132.064 178.711 131.592 178.711 130.984V129.88C178.711 129.272 178.535 128.808 178.183 128.488C177.831 128.168 177.351 128.008 176.743 128.008H172.663V132.88H176.743ZM198.081 129.976H197.985L196.689 132.64L193.257 138.976L189.825 132.64L188.529 129.976H188.433V142H185.433V125.248H189.009L193.305 133.432H193.401L197.649 125.248H201.081V142H198.081V129.976ZM215.395 142L214.051 137.728H208.099L206.779 142H203.563L209.179 125.248H213.115L218.683 142H215.395ZM211.123 128.128H211.003L208.867 135.016H213.283L211.123 128.128ZM226.157 128.056V142H222.989V128.056H218.237V125.248H230.909V128.056H226.157ZM232.69 142V139.456H234.898V127.792H232.69V125.248H240.298V127.792H238.066V139.456H240.298V142H232.69ZM250.11 142.288C249.006 142.288 248.006 142.104 247.11 141.736C246.214 141.368 245.446 140.816 244.806 140.08C244.182 139.344 243.694 138.44 243.342 137.368C242.99 136.296 242.814 135.048 242.814 133.624C242.814 132.216 242.99 130.976 243.342 129.904C243.694 128.816 244.182 127.904 244.806 127.168C245.446 126.432 246.214 125.88 247.11 125.512C248.006 125.144 249.006 124.96 250.11 124.96C251.214 124.96 252.214 125.144 253.11 125.512C254.006 125.88 254.774 126.432 255.414 127.168C256.054 127.904 256.542 128.816 256.878 129.904C257.23 130.976 257.406 132.216 257.406 133.624C257.406 135.048 257.23 136.296 256.878 137.368C256.542 138.44 256.054 139.344 255.414 140.08C254.774 140.816 254.006 141.368 253.11 141.736C252.214 142.104 251.214 142.288 250.11 142.288ZM250.11 139.48C251.31 139.48 252.262 139.08 252.966 138.28C253.686 137.48 254.046 136.36 254.046 134.92V132.328C254.046 130.888 253.686 129.768 252.966 128.968C252.262 128.168 251.31 127.768 250.11 127.768C248.91 127.768 247.95 128.168 247.23 128.968C246.526 129.768 246.174 130.888 246.174 132.328V134.92C246.174 136.36 246.526 137.48 247.23 138.28C247.95 139.08 248.91 139.48 250.11 139.48ZM265.42 133.408L263.692 129.928H263.62V142H260.62V125.248H264.1L269.14 133.84L270.868 137.32H270.94V125.248H273.94V142H270.46L265.42 133.408Z" fill="#020A36"/>
<path d="M24 46C24 34.9543 32.9543 26 44 26H313C324.046 26 333 34.9543 333 46V88C333 99.0457 324.046 108 313 108H44C32.9543 108 24 99.0457 24 88V46Z" fill="#0F4880"/>
<path d="M117.015 59.248H124.767C125.455 59.248 126.071 59.352 126.615 59.56C127.175 59.768 127.647 60.056 128.031 60.424C128.415 60.792 128.703 61.248 128.895 61.792C129.103 62.32 129.207 62.904 129.207 63.544C129.207 64.184 129.119 64.728 128.943 65.176C128.783 65.608 128.559 65.968 128.271 66.256C127.999 66.544 127.679 66.76 127.311 66.904C126.959 67.048 126.591 67.128 126.207 67.144V67.288C126.575 67.288 126.967 67.36 127.383 67.504C127.815 67.648 128.207 67.88 128.559 68.2C128.927 68.504 129.231 68.904 129.471 69.4C129.711 69.88 129.831 70.48 129.831 71.2C129.831 71.872 129.719 72.504 129.495 73.096C129.287 73.672 128.991 74.176 128.607 74.608C128.223 75.04 127.767 75.384 127.239 75.64C126.711 75.88 126.135 76 125.511 76H117.015V59.248ZM120.183 73.312H124.599C125.207 73.312 125.679 73.16 126.015 72.856C126.351 72.536 126.519 72.08 126.519 71.488V70.672C126.519 70.08 126.351 69.624 126.015 69.304C125.679 68.984 125.207 68.824 124.599 68.824H120.183V73.312ZM120.183 66.232H124.095C124.671 66.232 125.119 66.08 125.439 65.776C125.759 65.456 125.919 65.016 125.919 64.456V63.712C125.919 63.152 125.759 62.72 125.439 62.416C125.119 62.096 124.671 61.936 124.095 61.936H120.183V66.232ZM137.849 68.512C137.849 69.68 137.737 70.808 137.513 71.896C137.305 72.968 137.009 73.976 136.625 74.92C136.241 75.848 135.793 76.688 135.281 77.44C134.769 78.192 134.217 78.816 133.625 79.312H130.721C131.361 78.736 131.937 78.08 132.449 77.344C132.977 76.608 133.425 75.824 133.793 74.992C134.177 74.144 134.465 73.256 134.657 72.328C134.865 71.384 134.969 70.416 134.969 69.424V67.648C134.969 66.672 134.865 65.72 134.657 64.792C134.465 63.864 134.185 62.984 133.817 62.152C133.449 61.304 133.001 60.512 132.473 59.776C131.961 59.04 131.377 58.368 130.721 57.76H133.625C134.233 58.288 134.793 58.928 135.305 59.68C135.817 60.432 136.257 61.272 136.625 62.2C137.009 63.112 137.305 64.104 137.513 65.176C137.737 66.248 137.849 67.36 137.849 68.512ZM146.903 76V73.432H151.511V61.528H151.295L147.647 65.848L145.679 64.192L149.831 59.248H154.607V73.432H158.447V76H146.903ZM166.381 76.288C165.421 76.288 164.565 76.136 163.813 75.832C163.061 75.512 162.421 75.072 161.893 74.512C161.365 73.936 160.965 73.248 160.693 72.448C160.421 71.632 160.285 70.72 160.285 69.712C160.285 68.512 160.461 67.384 160.813 66.328C161.181 65.256 161.653 64.28 162.229 63.4C162.805 62.504 163.445 61.712 164.149 61.024C164.869 60.32 165.581 59.728 166.285 59.248H170.557C169.565 59.952 168.677 60.632 167.893 61.288C167.125 61.944 166.445 62.608 165.853 63.28C165.277 63.952 164.797 64.656 164.413 65.392C164.045 66.112 163.765 66.896 163.573 67.744L163.765 67.792C163.925 67.472 164.109 67.168 164.317 66.88C164.541 66.576 164.805 66.312 165.109 66.088C165.413 65.848 165.765 65.664 166.165 65.536C166.565 65.392 167.029 65.32 167.557 65.32C168.245 65.32 168.885 65.44 169.477 65.68C170.085 65.92 170.605 66.272 171.037 66.736C171.485 67.184 171.829 67.728 172.069 68.368C172.325 69.008 172.453 69.72 172.453 70.504C172.453 71.352 172.309 72.128 172.021 72.832C171.733 73.536 171.325 74.144 170.797 74.656C170.269 75.168 169.629 75.568 168.877 75.856C168.141 76.144 167.309 76.288 166.381 76.288ZM166.381 73.792C167.261 73.792 167.949 73.552 168.445 73.072C168.957 72.576 169.213 71.872 169.213 70.96V70.6C169.213 69.688 168.957 68.992 168.445 68.512C167.949 68.016 167.261 67.768 166.381 67.768C165.485 67.768 164.789 68.016 164.293 68.512C163.797 68.992 163.549 69.688 163.549 70.6V70.96C163.549 71.872 163.797 72.576 164.293 73.072C164.789 73.552 165.485 73.792 166.381 73.792ZM177.076 72.304C177.732 72.304 178.212 72.472 178.516 72.808C178.836 73.144 178.996 73.568 178.996 74.08V74.512C178.996 74.944 178.932 75.392 178.804 75.856C178.692 76.32 178.524 76.768 178.3 77.2C178.092 77.632 177.836 78.04 177.532 78.424C177.244 78.808 176.916 79.144 176.548 79.432H174.364C174.908 78.904 175.364 78.384 175.732 77.872C176.1 77.376 176.38 76.824 176.572 76.216C176.076 76.136 175.716 75.944 175.492 75.64C175.268 75.32 175.156 74.944 175.156 74.512V74.08C175.156 73.568 175.308 73.144 175.612 72.808C175.916 72.472 176.404 72.304 177.076 72.304ZM188.288 59.248H196.04C196.728 59.248 197.344 59.352 197.888 59.56C198.448 59.768 198.92 60.056 199.304 60.424C199.688 60.792 199.976 61.248 200.168 61.792C200.376 62.32 200.48 62.904 200.48 63.544C200.48 64.184 200.392 64.728 200.216 65.176C200.056 65.608 199.832 65.968 199.544 66.256C199.272 66.544 198.952 66.76 198.584 66.904C198.232 67.048 197.864 67.128 197.48 67.144V67.288C197.848 67.288 198.24 67.36 198.656 67.504C199.088 67.648 199.48 67.88 199.832 68.2C200.2 68.504 200.504 68.904 200.744 69.4C200.984 69.88 201.104 70.48 201.104 71.2C201.104 71.872 200.992 72.504 200.768 73.096C200.56 73.672 200.264 74.176 199.88 74.608C199.496 75.04 199.04 75.384 198.512 75.64C197.984 75.88 197.408 76 196.784 76H188.288V59.248ZM191.456 73.312H195.872C196.48 73.312 196.952 73.16 197.288 72.856C197.624 72.536 197.792 72.08 197.792 71.488V70.672C197.792 70.08 197.624 69.624 197.288 69.304C196.952 68.984 196.48 68.824 195.872 68.824H191.456V73.312ZM191.456 66.232H195.368C195.944 66.232 196.392 66.08 196.712 65.776C197.032 65.456 197.192 65.016 197.192 64.456V63.712C197.192 63.152 197.032 62.72 196.712 62.416C196.392 62.096 195.944 61.936 195.368 61.936H191.456V66.232ZM204.202 76V59.248H215.242V62.056H207.37V66.112H214.33V68.92H207.37V73.192H215.242V76H204.202ZM218.593 76V59.248H229.633V62.056H221.761V66.112H228.721V68.92H221.761V73.192H229.633V76H218.593ZM236.152 76H232.984V59.248H240.544C241.312 59.248 242 59.368 242.608 59.608C243.216 59.848 243.728 60.2 244.144 60.664C244.576 61.112 244.904 61.656 245.128 62.296C245.368 62.936 245.488 63.648 245.488 64.432C245.488 65.584 245.224 66.576 244.696 67.408C244.184 68.24 243.408 68.832 242.368 69.184L245.8 76H242.272L239.152 69.544H236.152V76ZM240.232 66.88C240.84 66.88 241.32 66.72 241.672 66.4C242.024 66.064 242.2 65.592 242.2 64.984V63.88C242.2 63.272 242.024 62.808 241.672 62.488C241.32 62.168 240.84 62.008 240.232 62.008H236.152V66.88H240.232Z" fill="white"/>
</svg>
