<svg width="200" height="200" viewBox="0 0 200 200" fill="none" xmlns="http://www.w3.org/2000/svg">
<path d="M191.017 115.651L190.331 87.3585H190.332C190.292 85.8961 189.477 84.5641 188.194 83.8618C186.91 83.1594 185.35 83.1909 184.096 83.9455L159.935 98.692C159.105 99.1943 158.479 99.9739 158.168 100.894C157.857 101.813 157.881 102.813 158.235 103.717C158.591 104.62 159.253 105.368 160.107 105.831L164.783 108.388C157.909 118.63 147.477 125.958 135.509 128.948V51.6153C142.824 47.8456 148.051 40.9791 149.737 32.9244C151.424 24.8693 149.389 16.4842 144.2 10.0959C139.012 3.70908 131.221 0 122.991 0C114.761 0 106.971 3.7088 101.782 10.0959C96.5932 16.4839 94.559 24.8693 96.2452 32.9244C97.9315 40.9794 103.158 47.8456 110.474 51.6153V128.948C98.5559 125.949 88.1674 118.648 81.3107 108.45L85.9873 105.893H85.9862C86.8398 105.431 87.503 104.682 87.8575 103.778C88.212 102.875 88.2359 101.876 87.9249 100.956C87.614 100.037 86.9887 99.2561 86.158 98.7537L62.028 84.0073C60.7743 83.2528 59.2141 83.2212 57.9298 83.9236C56.6467 84.6271 55.8323 85.958 55.7921 87.4214L55.0603 115.649C55.0321 116.62 55.3485 117.57 55.953 118.33C56.5565 119.09 57.4111 119.612 58.3625 119.803C59.315 119.994 60.3034 119.843 61.1547 119.376L66.7045 116.352V116.351C74.8356 128.964 86.9635 138.482 101.145 143.383C115.328 148.284 130.746 148.284 144.931 143.383C159.114 138.482 171.242 128.964 179.371 116.351L184.921 119.375V119.376C185.773 119.843 186.761 119.994 187.713 119.803C188.665 119.612 189.519 119.09 190.123 118.33C190.727 117.57 191.044 116.62 191.016 115.649L191.017 115.651ZM123.04 37.0709C120.46 37.0709 117.986 36.0467 116.162 34.2223C114.338 32.3988 113.313 29.9242 113.313 27.3449C113.313 24.7647 114.338 22.2911 116.162 20.4665C117.986 18.6431 120.46 17.6178 123.04 17.6178C125.62 17.6178 128.094 18.6432 129.918 20.4665C131.742 22.291 132.767 24.7646 132.767 27.3449C132.767 29.9241 131.742 32.3988 129.918 34.2223C128.094 36.0468 125.62 37.0709 123.04 37.0709Z" fill="#431939"/>
<path d="M143.959 168.592L143.272 140.3H143.273C143.233 138.837 142.419 137.506 141.136 136.803C139.852 136.101 138.291 136.132 137.038 136.887L112.876 151.633C112.046 152.136 111.42 152.915 111.109 153.835C110.798 154.754 110.822 155.754 111.177 156.658C111.532 157.562 112.194 158.31 113.048 158.773L117.725 161.329C110.851 171.572 100.419 178.899 88.45 181.889V104.557C95.7654 100.787 100.992 93.9205 102.679 85.8658C104.365 77.8107 102.331 69.4256 97.1419 63.0373C91.9531 56.6505 84.1625 52.9414 75.9326 52.9414C67.7028 52.9414 59.9119 56.6502 54.7234 63.0373C49.5346 69.4253 47.5004 77.8107 49.1867 85.8658C50.8729 93.9208 56.0999 100.787 63.4153 104.557V181.889C51.4973 178.891 41.1088 171.589 34.2521 161.391L38.9287 158.835H38.9276C39.7812 158.373 40.4444 157.623 40.7989 156.72C41.1534 155.816 41.1773 154.817 40.8663 153.897C40.5554 152.978 39.9302 152.198 39.0994 151.695L14.9694 136.949C13.7157 136.194 12.1555 136.163 10.8712 136.865C9.58814 137.569 8.77373 138.899 8.73351 140.363L8.00174 168.591C7.97347 169.562 8.2899 170.511 8.89443 171.271C9.4979 172.031 10.3525 172.553 11.3039 172.744C12.2564 172.936 13.2448 172.785 14.0961 172.317L19.6459 169.293V169.292C27.777 181.905 39.9049 191.424 54.0868 196.324C68.2698 201.226 83.687 201.226 97.872 196.324C112.055 191.424 124.183 181.905 132.313 169.292L137.863 172.316V172.317C138.714 172.785 139.702 172.936 140.655 172.744C141.606 172.553 142.461 172.031 143.064 171.271C143.669 170.511 143.985 169.562 143.957 168.591L143.959 168.592ZM75.9815 90.0123C73.4013 90.0123 70.9277 88.9881 69.103 87.1637C67.2796 85.3402 66.2544 82.8656 66.2544 80.2863C66.2544 77.7061 67.2797 75.2325 69.103 73.4079C70.9276 71.5845 73.4011 70.5592 75.9815 70.5592C78.5618 70.5592 81.0353 71.5846 82.8599 73.4079C84.6833 75.2325 85.7086 77.706 85.7086 80.2863C85.7086 82.8655 84.6832 85.3402 82.8599 87.1637C81.0354 88.9882 78.5618 90.0123 75.9815 90.0123Z" fill="white"/>
</svg>
