<svg width="36" height="36" viewBox="0 0 36 36" fill="none" xmlns="http://www.w3.org/2000/svg">
<path d="M8.98414 28.5912L9.33769 28.9448L9.69125 28.5912L18.0002 20.2823L26.3091 28.5912L26.6627 28.9448L27.0162 28.5912L28.5912 27.0162L28.9448 26.6627L28.5912 26.3091L20.2823 18.0002L28.5912 9.69125L28.9448 9.33769L28.5912 8.98414L27.0162 7.40914L26.6627 7.05559L26.3091 7.40914L18.0002 15.7181L9.69125 7.40914L9.33769 7.05559L8.98414 7.40914L7.40914 8.98414L7.05559 9.33769L7.40914 9.69125L15.7181 18.0002L7.40914 26.3091L7.05559 26.6627L7.40914 27.0162L8.98414 28.5912Z" fill="white" stroke="white"/>
</svg>
