<svg width="53" height="50" viewBox="0 0 53 50" fill="none" xmlns="http://www.w3.org/2000/svg">
<path d="M0.0301702 25.4924L2.30095 15.1628C2.30492 15.1477 2.31286 15.1334 2.31682 15.1173C2.33269 15.0536 2.35606 14.9917 2.38251 14.9297C2.39529 14.9003 2.40631 14.8705 2.42174 14.8415C2.42792 14.8295 2.43188 14.8161 2.43806 14.8036C2.47156 14.7448 2.51212 14.6935 2.55223 14.6427C2.56193 14.6311 2.56634 14.6186 2.5756 14.6075L2.58618 14.5946C2.58662 14.5941 2.5875 14.5932 2.58794 14.5928L10.1595 5.69026C10.2737 5.55567 10.4147 5.44693 10.573 5.37027L20.6313 0.514726C20.6454 0.508486 20.6604 0.504922 20.6741 0.499574C20.7164 0.480856 20.7605 0.465703 20.8041 0.452334C20.8394 0.441638 20.8738 0.430495 20.9095 0.42292C20.9549 0.41267 21.0016 0.407768 21.0479 0.402419C21.0726 0.399745 21.096 0.392615 21.1207 0.391724L29.9693 0.0013199C30.0958 -0.00447369 30.2175 0.00889587 30.3378 0.0396469L42.4473 3.16639C42.4637 3.17085 42.4778 3.18065 42.4941 3.18556C42.5756 3.20962 42.6528 3.24126 42.7255 3.28004C42.7506 3.29341 42.774 3.30767 42.7983 3.32237C42.8758 3.37095 42.9473 3.42666 43.0121 3.48995C43.0196 3.49708 43.0293 3.50153 43.0368 3.50911L52.6419 13.397C52.6577 13.4131 52.6683 13.4327 52.6824 13.4496C52.7221 13.4951 52.7613 13.5423 52.7948 13.594C52.8142 13.6239 52.8297 13.656 52.8469 13.6872C52.8645 13.7206 52.8861 13.7505 52.9006 13.7848C52.9068 13.7999 52.9094 13.816 52.9152 13.8316C52.9284 13.8668 52.9385 13.902 52.9487 13.9381C52.9632 13.9898 52.9765 14.041 52.9848 14.0927C52.9897 14.127 52.9932 14.1618 52.9963 14.197C53.0003 14.2527 53.0011 14.3071 52.9981 14.3624C52.9976 14.3811 53.0007 14.3993 52.9985 14.4181L51.9938 24.7467C51.9471 25.2289 51.6336 25.643 51.1853 25.8154L42.6325 29.1053L37.5315 37.392C37.5231 37.4054 37.5108 37.4152 37.5024 37.4285C37.4896 37.4477 37.4808 37.4687 37.4671 37.4874C37.4433 37.5195 37.4133 37.5422 37.3873 37.5716C37.3565 37.6059 37.3265 37.6407 37.2925 37.6714C37.2462 37.7124 37.1973 37.7463 37.1466 37.7802C37.1127 37.8025 37.08 37.827 37.0435 37.8466C36.9848 37.8778 36.9227 37.8996 36.8596 37.9206C36.8261 37.9326 36.7944 37.9473 36.7596 37.9562C36.663 37.9803 36.5643 37.9945 36.4651 37.995C36.4624 37.995 36.4607 37.9954 36.458 37.9954H27.3175L19.4851 46.5878C19.2404 46.8556 18.9018 47 18.5553 47C18.3949 47 18.2322 46.9692 18.0783 46.9055C17.5899 46.7041 17.2755 46.2174 17.2923 45.6844L17.5017 38.6282L16.1726 35.2817L7.26969 36.3972C6.7755 36.4623 6.30733 36.2305 6.04542 35.812L0.194943 26.4541C0.0177246 26.1671 -0.0425771 25.8222 0.0301702 25.4924ZM11.9027 7.55975L6.67426 13.7086L18.8526 11.4455L19.7625 3.76546L11.9027 7.55975ZM19.9622 13.8382L7.35162 16.1815L22.6945 25.0908L19.9622 13.8382ZM21.3209 12.1023L34.1899 17.1241L22.2113 4.58908L21.3209 12.1023ZM25.4622 25.7749L35.4081 20.3383L22.9634 15.4827L25.4622 25.7749ZM29.8931 2.56216L24.0352 2.82109L37.9707 17.4018L40.6339 5.33563L29.8931 2.56216ZM42.8626 6.97686L40.4667 17.8287L49.5485 13.8592L42.8626 6.97686ZM49.5551 23.7081L50.2737 16.3271L40.3123 20.6817L42.5104 26.4182L49.5551 23.7081ZM40.3785 27.9304L38.0332 21.8105L26.9574 27.8652L36.1168 34.8537L40.3785 27.9304ZM25.8347 35.8503C26.0741 35.5878 26.4109 35.438 26.7644 35.438H32.6864L25.7064 30.1114L25.1571 31.5005L25.1611 31.5019L22.0522 40.0007L25.8347 35.8503ZM7.75508 33.7606L16.8282 32.6241C17.3978 32.5479 17.9431 32.8777 18.1573 33.4156L19.9471 37.9231C19.981 38.0096 20.0044 38.0983 20.0189 38.1887L22.5834 31.1789L22.564 31.1705L23.4095 29.0336L5.42472 30.0323L7.75508 33.7606ZM3.8779 27.5588L20.2974 26.6469L4.39704 17.4137L2.61255 25.5327L3.8779 27.5588Z" fill="#020A36"/>
</svg>
