<svg width="200" height="200" viewBox="0 0 200 200" fill="none" xmlns="http://www.w3.org/2000/svg">
<path fill-rule="evenodd" clip-rule="evenodd" d="M195.979 70.5407L117.475 149.178C112.141 154.521 103.308 154.521 97.8086 149.178L58.6403 109.943C53.3061 104.6 53.3061 95.7508 58.6403 90.2424C63.9744 84.8991 72.8081 84.8991 78.3072 90.2424L107.809 119.794L176.478 51.0075C181.812 45.6642 190.646 45.6642 196.145 51.0075C201.313 56.3495 201.313 65.1983 195.979 70.5404L195.979 70.5407Z" fill="#0E5A5A"/>
<path fill-rule="evenodd" clip-rule="evenodd" d="M141.339 70.5407L62.8358 149.178C57.5017 154.521 48.668 154.521 43.1689 149.178L4.00062 109.943C-1.33354 104.6 -1.33354 95.7508 4.00062 90.2424C9.33477 84.8991 18.1685 84.8991 23.6675 90.2424L53.1691 119.794L121.839 51.0075C127.173 45.6642 136.006 45.6642 141.506 51.0075C146.673 56.3495 146.673 65.1986 141.339 70.5407Z" fill="white"/>
</svg>
